<svg width="142" height="54" viewBox="0 0 142 54" fill="none" xmlns="http://www.w3.org/2000/svg">
<path d="M7.06768 47.2934V46.5012H0V53.9425H0.982324V50.7094H6.81848V49.8563H0.982324V47.2934H7.06407H7.06768Z" fill="#172859"/>
<path d="M8.17285 48.6948V53.9389H9.15518V48.6948H8.17285ZM8.17285 46.4976V47.5335H9.15518V46.4976H8.17285Z" fill="#172859"/>
<path d="M17.0826 49.7308C17.0212 49.4261 16.8984 49.2433 16.7143 49.0605C16.4687 48.8777 16.2231 48.7558 15.8547 48.6949C15.4864 48.6339 15.0566 48.573 14.504 48.573H14.3198C13.8901 48.573 13.5831 48.6339 13.2761 48.6339C13.0305 48.6949 12.785 48.7558 12.6008 48.8777C12.3552 48.9386 12.2324 49.0605 12.1096 49.2433C11.9868 49.3652 11.864 49.487 11.8026 49.6698H11.7412V48.6949H10.8203V53.9389H11.7412V51.0714C11.7412 50.7667 11.8026 50.462 11.9254 50.2183C11.9868 50.0354 12.1096 49.8526 12.3552 49.7308C12.5394 49.6089 12.785 49.487 13.0305 49.4261C13.3375 49.3652 13.7059 49.3652 14.0743 49.3652H14.2584C14.6882 49.3652 15.0566 49.3652 15.3022 49.4261C15.5477 49.487 15.7933 49.548 15.9161 49.6698C16.1003 49.7917 16.1617 49.9745 16.2231 50.2183C16.2845 50.462 16.2845 50.7057 16.2845 51.0714V53.9389H17.2054V50.8885C17.2054 50.4011 17.2054 50.0354 17.0826 49.7308Z" fill="#172859"/>
<path d="M23.8395 49.3653V48.695H20.1521V47.2935H19.2312V48.695H18.1875V49.3653H19.2312V51.7418C19.2312 52.2292 19.2926 52.5948 19.354 52.8995C19.4154 53.2042 19.4768 53.4479 19.661 53.5698C19.7838 53.7526 20.0294 53.8745 20.2749 53.9354C20.5205 53.9964 20.8889 53.9964 21.3187 53.9964H21.5642C21.994 53.9964 22.3624 53.9964 22.6694 53.9354C22.9149 53.8745 23.1605 53.7526 23.3447 53.6308C23.5289 53.5089 23.6517 53.2651 23.7131 53.0214C23.7745 52.7777 23.8359 52.473 23.8359 52.1074V51.5589H22.9763V52.5949C22.9149 52.7777 22.8535 52.8995 22.7921 53.0214C22.6694 53.1433 22.5466 53.2042 22.3624 53.2042C22.1782 53.2651 21.9326 53.2651 21.6256 53.2651H21.4414C21.1959 53.2651 20.9503 53.2651 20.7661 53.2042C20.5819 53.2042 20.4591 53.0823 20.3977 52.9605C20.2749 52.8995 20.2749 52.7167 20.2135 52.473C20.2135 52.2902 20.1521 51.9855 20.1521 51.6199V49.3653H23.8395Z" fill="#172859"/>
<path d="M30.5393 52.1109V52.2328C30.5393 52.4156 30.4779 52.5984 30.4165 52.7203C30.3551 52.9031 30.2937 52.964 30.1095 53.0859C29.9867 53.1468 29.7411 53.2078 29.4956 53.2687H28.1449C27.6537 53.2687 27.2853 53.2687 26.9784 53.2078C26.6714 53.2078 26.4258 53.0859 26.2416 52.964C26.1188 52.8421 25.996 52.6593 25.9346 52.4156C25.8732 52.2328 25.8732 51.9281 25.8732 51.5625V51.4406H31.341V50.8313C31.341 50.4047 31.2796 50.0391 31.2182 49.7344C31.1568 49.4907 30.9727 49.247 30.7885 49.0641C30.5429 48.9423 30.2359 48.8204 29.8675 48.6985C29.4378 48.6376 28.9466 48.5767 28.2713 48.5767H28.0257C27.4117 48.5767 26.9206 48.6376 26.4908 48.6985C26.061 48.7595 25.7541 48.9423 25.5085 49.1251C25.3243 49.3079 25.1401 49.5516 25.0787 49.9172C24.9559 50.2829 24.8945 50.7094 24.8945 51.2578V51.3797C24.8945 51.9281 24.9559 52.3547 25.0173 52.7203C25.1401 53.025 25.3243 53.3296 25.5085 53.5124C25.7541 53.6952 26.1224 53.8171 26.5522 53.939C26.9206 53.9999 27.4731 53.9999 28.1485 53.9999H28.4555C29.008 53.9999 29.4378 53.9999 29.8675 53.939C30.2359 53.8781 30.5429 53.7562 30.7271 53.6343C30.9727 53.5124 31.1568 53.3296 31.2182 53.0859C31.341 52.9031 31.4024 52.5984 31.4024 52.2328V52.1109H30.5429H30.5393ZM25.931 50.0355C25.9924 49.8527 26.1152 49.6699 26.238 49.548C26.4222 49.4871 26.6678 49.3652 26.9134 49.3652C27.2203 49.3043 27.6501 49.3043 28.1413 49.3043H28.264C28.7552 49.3043 29.1236 49.3043 29.4306 49.3652C29.7375 49.3652 29.9217 49.4871 30.1059 49.548C30.2287 49.6699 30.3515 49.7918 30.4129 49.9746C30.4129 50.1574 30.4743 50.3402 30.4743 50.6449V50.7668H25.866C25.866 50.4621 25.866 50.2183 25.9274 50.0355H25.931Z" fill="#172859"/>
<path d="M39.1417 50.5229V50.4011C39.1417 50.0354 39.0803 49.7308 39.0189 49.487C38.8961 49.2433 38.7733 49.0605 38.5277 48.9386C38.3435 48.8167 38.0366 48.6949 37.6068 48.6949C37.2384 48.6339 36.7473 48.573 36.1947 48.573H35.8877C35.2124 48.573 34.6598 48.6339 34.2301 48.6949C33.8003 48.7558 33.4933 48.8777 33.2477 49.0605C33.0022 49.2433 32.818 49.548 32.7566 49.8526C32.6952 50.2183 32.6338 50.6448 32.6338 51.1932V51.376C32.6338 51.9244 32.6952 52.351 32.7566 52.7166C32.818 53.0822 33.0022 53.326 33.2477 53.5088C33.4933 53.6916 33.8003 53.8135 34.2301 53.9353C34.6598 53.9963 35.2124 53.9963 35.8877 53.9963H36.1947C36.7473 53.9963 37.2384 53.9963 37.6068 53.9353C38.0366 53.8744 38.3435 53.7525 38.5277 53.6306C38.7733 53.4478 38.9575 53.265 39.0189 53.0213C39.1417 52.7775 39.1417 52.5338 39.1417 52.1682V51.9854H38.2822V52.0463C38.2822 52.2901 38.2208 52.4729 38.1594 52.6557C38.098 52.7775 38.0366 52.8994 37.8524 53.0213C37.7296 53.0822 37.484 53.1432 37.2384 53.2041C36.9315 53.265 36.5631 53.265 36.1333 53.265H35.8877C35.3966 53.265 34.9668 53.265 34.6598 53.2041C34.3529 53.1432 34.1073 53.0822 33.9845 52.8994C33.8003 52.7775 33.6775 52.5947 33.6161 52.351C33.5547 52.1073 33.5547 51.8026 33.5547 51.376V51.1932C33.5547 50.8276 33.5547 50.462 33.6161 50.2183C33.6775 49.9745 33.8003 49.7917 33.9231 49.6698C34.1073 49.548 34.3529 49.4261 34.6598 49.3652C34.9668 49.3652 35.3966 49.3042 35.8877 49.3042H36.1333C36.5631 49.3042 36.9315 49.3652 37.177 49.3652C37.484 49.4261 37.6682 49.487 37.8524 49.548C37.9752 49.6089 38.098 49.7308 38.1594 49.9136C38.2208 50.0354 38.2208 50.2183 38.2208 50.462V50.5229H39.1417Z" fill="#172859"/>
<path d="M46.8805 49.7307C46.8191 49.426 46.6963 49.2432 46.4507 49.0604C46.2665 48.8776 45.9596 48.7558 45.6526 48.6948C45.2842 48.6339 44.8544 48.573 44.3019 48.573H44.1177C43.6879 48.573 43.3196 48.6339 43.074 48.6339C42.767 48.6948 42.5214 48.7558 42.3372 48.8776C42.153 48.9386 42.0303 49.0604 41.9075 49.2432C41.7847 49.3651 41.6619 49.487 41.5391 49.6698V46.4976H40.6182V53.9389H41.5391V51.0713C41.5391 50.7666 41.6005 50.462 41.6619 50.2182C41.7847 50.0354 41.9075 49.8526 42.0917 49.7307C42.2758 49.6089 42.5214 49.487 42.8284 49.426C43.1354 49.3651 43.4423 49.3651 43.8721 49.3651H44.0563C44.4861 49.3651 44.8544 49.3651 45.1 49.426C45.3456 49.487 45.5912 49.5479 45.714 49.6698C45.8368 49.7917 45.9596 49.9745 46.0209 50.2182C46.0823 50.462 46.0823 50.7057 46.0823 51.0713V53.9389H47.0033V50.8885C47.0033 50.401 46.9419 50.0354 46.8805 49.7307Z" fill="#172859"/>
<path d="M60.3376 50.7668C60.2148 50.5231 60.0306 50.2794 59.785 50.1575C59.478 49.9747 59.0483 49.8528 58.5571 49.7919C58.0045 49.7309 57.3292 49.7309 56.4697 49.7309C55.7329 49.7309 55.1804 49.7309 54.7506 49.67C54.3822 49.6091 54.0753 49.5481 53.8297 49.4872C53.6455 49.3653 53.5227 49.2435 53.4613 49.1216C53.3999 48.9388 53.3999 48.756 53.3999 48.5122V48.3904C53.3999 48.1466 53.4613 47.9638 53.5227 47.781C53.5841 47.6591 53.7069 47.5373 53.8911 47.4154C54.0753 47.3545 54.3822 47.2935 54.6892 47.2326H57.8854C58.2537 47.2935 58.5607 47.3545 58.7449 47.4763C58.9291 47.5982 59.0519 47.7201 59.1133 47.9029C59.1747 48.0857 59.2361 48.3294 59.2361 48.6341V48.756H60.2184V48.5732C60.2184 48.1466 60.157 47.781 60.0956 47.4763C59.9728 47.2326 59.7886 46.9888 59.543 46.806C59.2975 46.6842 58.8677 46.5623 58.3765 46.5014C57.824 46.4404 57.1486 46.4404 56.2855 46.4404H55.9785C55.2418 46.4404 54.6892 46.4404 54.198 46.5014C53.7683 46.5623 53.3999 46.6842 53.0929 46.806C52.8474 46.9888 52.6632 47.1717 52.5404 47.4154C52.479 47.7201 52.4176 48.0247 52.4176 48.3904V48.5122C52.4176 48.9388 52.4176 49.2435 52.5404 49.5481C52.6018 49.7919 52.786 49.9747 53.0315 50.1575C53.3385 50.2794 53.7069 50.4012 54.2594 50.4622C54.7506 50.5231 55.4873 50.5231 56.4083 50.5231C57.0836 50.5231 57.6362 50.584 58.0659 50.584C58.4343 50.645 58.7413 50.7059 58.9869 50.7668C59.1711 50.8887 59.2939 51.0106 59.3552 51.1934C59.4166 51.3153 59.478 51.559 59.478 51.8028V51.8637C59.478 52.1684 59.4166 52.4121 59.3552 52.534C59.2939 52.7168 59.1711 52.8387 58.9255 52.9605C58.7413 53.0215 58.4343 53.0824 58.0659 53.1433C57.6976 53.1433 57.2064 53.2043 56.5925 53.2043H56.2855C55.6101 53.2043 55.0576 53.1433 54.6278 53.1433C54.2594 53.1433 53.9525 53.0824 53.7069 52.9605C53.5227 52.8387 53.3999 52.7168 53.3385 52.534C53.2771 52.3512 53.2157 52.1074 53.2157 51.8028V51.6199H52.2334V51.8028C52.2334 52.2902 52.2948 52.6558 52.3562 52.9605C52.4176 53.2652 52.6018 53.448 52.9087 53.6308C53.1543 53.7527 53.5841 53.8746 54.1367 53.9355C54.6892 53.9964 55.426 53.9964 56.3469 53.9964H56.7153C57.452 53.9964 58.0659 53.9964 58.5571 53.9355C59.0483 53.8746 59.478 53.7527 59.7236 53.6308C60.0306 53.448 60.2148 53.2043 60.2762 52.9605C60.399 52.6558 60.4604 52.3512 60.4604 51.8637V51.7418C60.4604 51.3762 60.399 51.0106 60.3376 50.7668Z" fill="#172859"/>
<path d="M68.4481 49.8526C68.3253 49.548 68.2025 49.2433 67.9569 49.0605C67.7113 48.8777 67.4044 48.7558 66.9746 48.6949C66.5448 48.6339 65.9923 48.573 65.3169 48.573H65.0099C64.3346 48.573 63.8434 48.6339 63.4137 48.6949C62.9839 48.7558 62.6155 48.8777 62.4313 49.0605C62.1858 49.2433 62.0016 49.548 61.9402 49.8526C61.8174 50.2183 61.8174 50.6448 61.8174 51.1932V51.376C61.8174 51.9244 61.8174 52.4119 61.9402 52.7166C62.0016 53.0822 62.1244 53.326 62.3699 53.5088C62.6155 53.6916 62.9839 53.8135 63.3523 53.9353C63.782 53.9963 64.3346 53.9963 65.0099 53.9963H65.3169C65.9923 53.9963 66.5448 53.9963 66.9746 53.9353C67.4044 53.8135 67.7113 53.6916 67.9569 53.5088C68.2025 53.326 68.3253 53.0822 68.4481 52.7166C68.5095 52.4119 68.5709 51.9244 68.5709 51.376V51.1932C68.5709 50.6448 68.5095 50.2183 68.4481 49.8526ZM67.6499 51.3796C67.6499 51.8062 67.5885 52.1108 67.5885 52.3546C67.5271 52.5983 67.4044 52.7811 67.2202 52.9639C67.0974 53.0858 66.8518 53.1467 66.5448 53.2077C66.2378 53.2686 65.8081 53.2686 65.3169 53.2686H65.0713C64.5188 53.2686 64.1504 53.2686 63.8434 53.2077C63.5365 53.1467 63.2909 53.0858 63.1067 52.9639C62.9225 52.7811 62.8611 52.5983 62.7997 52.3546C62.7383 52.1108 62.7383 51.8062 62.7383 51.3796V51.1968C62.7383 50.8312 62.7383 50.4656 62.7997 50.2218C62.8611 49.9781 62.9225 49.7953 63.1067 49.6734C63.2909 49.5515 63.5365 49.4297 63.8434 49.3687C64.1504 49.3687 64.5188 49.3078 65.0713 49.3078H65.3169C65.8081 49.3078 66.2378 49.3687 66.5448 49.3687C66.8518 49.4297 67.0974 49.5515 67.2202 49.6734C67.4044 49.7953 67.5271 49.9781 67.5885 50.2218C67.5885 50.4656 67.6499 50.8312 67.6499 51.1968V51.3796Z" fill="#172859"/>
<path d="M70.0488 46.4976V53.9389H70.9698V46.4976H70.0488Z" fill="#172859"/>
<path d="M78.0335 48.6951V51.5017C78.0335 51.8673 77.9721 52.172 77.9107 52.3548C77.7879 52.5985 77.6651 52.7813 77.481 52.9032C77.2968 53.0251 77.0512 53.1469 76.7442 53.2079C76.4372 53.2079 76.1303 53.2688 75.7005 53.2688H75.5163C75.0865 53.2688 74.7182 53.2079 74.4726 53.2079C74.227 53.1469 73.9814 53.0251 73.8586 52.9032C73.6745 52.7813 73.6131 52.5985 73.5517 52.3548C73.4903 52.111 73.4903 51.8064 73.4903 51.4408V48.6951H72.5693V51.6845C72.5693 52.172 72.5693 52.5376 72.6921 52.8423C72.7535 53.1469 72.9377 53.3907 73.1219 53.5735C73.3061 53.6954 73.6131 53.8172 73.92 53.9391C74.2884 54 74.7796 54 75.3321 54H75.4549C75.8847 54 76.2531 54 76.4986 53.9391C76.8056 53.8782 77.0512 53.8172 77.2354 53.7563C77.4196 53.6344 77.6037 53.5126 77.7265 53.3907C77.8493 53.2079 77.9107 53.086 78.0335 52.9032V53.9391H78.9544V48.6951H78.0335Z" fill="#172859"/>
<path d="M81.9666 49.3653H85.5925V48.695H81.9666V47.2935H81.0457V48.695H80.002V49.3653H81.0457V51.7418C81.0457 52.2292 81.0457 52.5948 81.1071 52.8995C81.1685 53.2042 81.2913 53.4479 81.414 53.5698C81.5982 53.7526 81.7824 53.8745 82.0894 53.9354C82.335 53.9964 82.6419 53.9964 83.0717 53.9964H83.3173C83.7471 53.9964 84.1154 53.9964 84.4224 53.9354C84.7294 53.8745 84.975 53.7526 85.1592 53.6308C85.2819 53.5089 85.4047 53.2651 85.4661 53.0214C85.5889 52.7777 85.5889 52.473 85.5889 52.1074V51.5589H84.7908V51.9855C84.7908 52.2292 84.7908 52.473 84.7294 52.5949C84.7294 52.7777 84.668 52.8995 84.5452 53.0214C84.4838 53.1433 84.2996 53.2042 84.1154 53.2042C83.9312 53.2651 83.7471 53.2651 83.4401 53.2651H83.2559C82.9489 53.2651 82.7033 53.2651 82.5806 53.2042C82.3964 53.2042 82.2736 53.0823 82.1508 52.9605C82.0894 52.8995 82.028 52.7167 81.9666 52.473V49.3617V49.3653Z" fill="#172859"/>
<path d="M86.9434 48.6948V53.9389H87.8643V48.6948H86.9434ZM86.9434 46.4976V47.5335H87.8643V46.4976H86.9434Z" fill="#172859"/>
<path d="M95.9754 49.8526C95.914 49.548 95.7298 49.2433 95.4843 49.0605C95.2387 48.8777 94.9317 48.7558 94.5019 48.6949C94.0722 48.6339 93.5196 48.573 92.8443 48.573H92.5987C91.9233 48.573 91.3708 48.6339 90.941 48.6949C90.5112 48.7558 90.1429 48.8777 89.9587 49.0605C89.7131 49.2433 89.5289 49.548 89.4675 49.8526C89.3447 50.2183 89.3447 50.6448 89.3447 51.1932V51.376C89.3447 51.9244 89.3447 52.4119 89.4675 52.7166C89.5289 53.0822 89.7131 53.326 89.8973 53.5088C90.1429 53.6916 90.5112 53.8135 90.941 53.9353C91.3094 53.9963 91.8619 53.9963 92.5987 53.9963H92.8443C93.581 53.9963 94.1336 53.9963 94.5019 53.9353C94.9317 53.8135 95.2387 53.6916 95.4843 53.5088C95.7298 53.326 95.914 53.0822 95.9754 52.7166C96.0368 52.4119 96.0982 51.9244 96.0982 51.376V51.1932C96.0982 50.6448 96.0368 50.2183 95.9754 49.8526ZM95.1773 51.3796C95.1773 51.8062 95.1159 52.1108 95.1159 52.3546C95.0545 52.5983 94.9317 52.7811 94.7475 52.9639C94.6247 53.0858 94.3791 53.1467 94.0722 53.2077C93.7652 53.2686 93.3354 53.2686 92.8443 53.2686H92.5987C92.0461 53.2686 91.6777 53.2686 91.3708 53.2077C91.0638 53.1467 90.8182 53.0858 90.634 52.9639C90.4498 52.7811 90.3884 52.5983 90.3271 52.3546C90.2657 52.1108 90.2657 51.8062 90.2657 51.3796V51.1968C90.2657 50.8312 90.2657 50.4656 90.3271 50.2218C90.3884 49.9781 90.4498 49.7953 90.634 49.6734C90.8182 49.5515 91.0638 49.4297 91.3708 49.3687C91.6777 49.3687 92.0461 49.3078 92.5987 49.3078H92.8443C93.3354 49.3078 93.7652 49.3687 94.0722 49.3687C94.3791 49.4297 94.6247 49.5515 94.7475 49.6734C94.9317 49.7953 95.0545 49.9781 95.1159 50.2218C95.1159 50.4656 95.1773 50.8312 95.1773 51.1968V51.3796Z" fill="#172859"/>
<path d="M103.841 49.7308C103.78 49.4261 103.596 49.2433 103.412 49.0605C103.227 48.8777 102.92 48.7558 102.614 48.6949C102.245 48.6339 101.754 48.573 101.201 48.573H101.079C100.649 48.573 100.28 48.6339 100.035 48.6339C99.7279 48.6949 99.4824 48.7558 99.2982 48.8777C99.114 48.9386 98.9298 49.0605 98.8684 49.2433C98.7456 49.3652 98.6228 49.487 98.5 49.6698V48.6949H97.5791V53.9389H98.5V51.0714C98.5 50.7667 98.5614 50.462 98.6228 50.2183C98.7456 50.0354 98.8684 49.8526 99.0526 49.7308C99.2368 49.6089 99.4824 49.487 99.7893 49.4261C100.096 49.3652 100.403 49.3652 100.833 49.3652H100.956C101.447 49.3652 101.754 49.3652 102.061 49.4261C102.307 49.487 102.491 49.548 102.675 49.6698C102.798 49.7917 102.92 49.9745 102.982 50.2183C102.982 50.462 103.043 50.7057 103.043 51.0714V53.9389H103.964V50.8885C103.964 50.4011 103.903 50.0354 103.841 49.7308Z" fill="#172859"/>
<path d="M111.645 51.6234C111.584 51.4406 111.4 51.2578 111.216 51.136C110.97 51.075 110.663 50.9531 110.233 50.8922C109.865 50.8922 109.312 50.8313 108.698 50.8313H107.471C107.164 50.8313 106.979 50.7703 106.795 50.7094C106.672 50.6485 106.55 50.5875 106.55 50.4657C106.488 50.4047 106.427 50.2829 106.427 50.1V50.0391C106.427 49.8563 106.488 49.7344 106.488 49.6735C106.55 49.5516 106.611 49.4907 106.795 49.4298C106.918 49.3688 107.102 49.3688 107.348 49.3079H109.746C109.991 49.3688 110.176 49.3688 110.36 49.4298C110.483 49.5516 110.544 49.6126 110.605 49.7344C110.667 49.8563 110.667 49.9782 110.667 50.161V50.2219H111.588V50.1C111.588 49.7954 111.526 49.5516 111.465 49.3688C111.342 49.186 111.219 49.0032 110.974 48.8813C110.79 48.7595 110.483 48.6985 110.114 48.6376C109.746 48.6376 109.255 48.5767 108.641 48.5767H108.334C107.781 48.5767 107.29 48.6376 106.983 48.6985C106.615 48.6985 106.308 48.8204 106.123 48.8813C105.939 49.0032 105.755 49.1251 105.694 49.3079C105.571 49.4907 105.571 49.7344 105.571 49.9782V50.1C105.571 50.4047 105.571 50.6485 105.694 50.8313C105.755 51.0141 105.878 51.1969 106.123 51.3188C106.308 51.3797 106.615 51.4406 107.044 51.5016C107.413 51.5625 107.904 51.5625 108.579 51.5625C109.132 51.5625 109.5 51.5625 109.807 51.6234C110.114 51.6234 110.36 51.6844 110.544 51.7453C110.667 51.8062 110.79 51.8672 110.851 51.9891C110.851 52.1109 110.912 52.2328 110.912 52.3547V52.4765C110.912 52.6593 110.851 52.7812 110.851 52.9031C110.79 52.964 110.728 53.0859 110.544 53.1468C110.421 53.2078 110.237 53.2687 109.991 53.2687C109.746 53.2687 109.377 53.3296 108.948 53.3296H108.518C108.027 53.3296 107.597 53.2687 107.29 53.2687C107.044 53.2687 106.799 53.2078 106.676 53.1468C106.492 53.0859 106.43 52.964 106.369 52.8421V52.3547H105.387V52.4765C105.387 52.7812 105.448 53.025 105.51 53.2687C105.571 53.4515 105.755 53.5734 105.939 53.6952C106.185 53.8171 106.492 53.939 106.922 53.939C107.351 53.9999 107.843 53.9999 108.579 53.9999H109.009C109.562 53.9999 109.991 53.9999 110.36 53.939C110.728 53.8781 111.035 53.8171 111.219 53.6952C111.465 53.5734 111.588 53.3906 111.649 53.2078C111.772 52.964 111.772 52.7203 111.772 52.4156V52.2937C111.772 52.05 111.772 51.8062 111.649 51.6234H111.645Z" fill="#172859"/>
<path d="M124.611 46.4976V49.6698H117.976V46.4976H116.933V53.9389H117.976V50.462H124.611V53.9389H125.593V46.4976H124.611Z" fill="#172859"/>
<path d="M132.722 48.6951V51.5017C132.722 51.8673 132.661 52.172 132.599 52.3548C132.476 52.5985 132.354 52.7813 132.169 52.9032C131.985 53.0251 131.74 53.1469 131.433 53.2079C131.126 53.2079 130.819 53.2688 130.389 53.2688H130.266C129.775 53.2688 129.407 53.2079 129.161 53.2079C128.915 53.1469 128.67 53.0251 128.547 52.9032C128.363 52.7813 128.302 52.5985 128.24 52.3548C128.179 52.111 128.179 51.8064 128.179 51.4408V48.6951H127.258V51.6845C127.258 52.172 127.319 52.5376 127.381 52.8423C127.442 53.1469 127.626 53.3907 127.81 53.5735C127.995 53.6954 128.302 53.8172 128.67 53.9391C128.977 54 129.468 54 130.021 54H130.143C130.573 54 130.942 54 131.187 53.9391C131.494 53.8782 131.74 53.8172 131.924 53.7563C132.108 53.6344 132.292 53.5126 132.415 53.3907C132.538 53.2079 132.599 53.086 132.722 52.9032V53.9391H133.643V48.6951H132.722Z" fill="#172859"/>
<path d="M141.877 49.8526C141.754 49.5479 141.631 49.2432 141.386 49.0604C141.202 48.8776 140.895 48.7558 140.526 48.6948C140.097 48.6339 139.605 48.573 138.991 48.573H138.807C138.439 48.573 138.132 48.573 137.825 48.6339C137.579 48.6339 137.334 48.6948 137.15 48.7558C136.965 48.8167 136.781 48.9386 136.658 49.0604C136.536 49.1823 136.413 49.3042 136.29 49.487V46.4976H135.369V53.9389H136.29V53.0858C136.351 53.2686 136.474 53.3904 136.597 53.5123C136.72 53.6342 136.904 53.7561 137.088 53.817C137.272 53.8779 137.518 53.9389 137.825 53.9998H138.991C139.605 53.9998 140.097 53.9998 140.526 53.9389C140.895 53.817 141.202 53.6951 141.386 53.5123C141.631 53.3295 141.754 53.0248 141.877 52.7202C141.938 52.3545 142 51.928 142 51.3796V51.1968C142 50.6483 141.938 50.2218 141.877 49.8562V49.8526ZM141.075 51.3796C141.075 51.7452 141.014 52.1108 141.014 52.3545C140.952 52.5983 140.83 52.7811 140.707 52.903C140.523 53.0858 140.277 53.1467 140.032 53.2076C139.725 53.2686 139.356 53.2686 138.865 53.2686H138.558C138.067 53.2686 137.699 53.2686 137.392 53.2076C137.085 53.1467 136.839 53.0858 136.655 52.903C136.532 52.7811 136.409 52.5983 136.348 52.3545C136.286 52.1108 136.286 51.7452 136.286 51.3796V51.1968C136.286 50.8312 136.286 50.4655 136.348 50.2218C136.409 49.9781 136.532 49.7952 136.716 49.6734C136.839 49.4906 137.085 49.4296 137.392 49.3687C137.699 49.3687 138.067 49.3078 138.558 49.3078H138.865C139.356 49.3078 139.725 49.3687 140.032 49.3687C140.277 49.4296 140.523 49.5515 140.707 49.6734C140.83 49.7952 140.952 49.9781 141.014 50.2218C141.014 50.4655 141.075 50.8312 141.075 51.1968V51.3796Z" fill="#172859"/>
<path d="M8.34357 23.9263H8.32422V23.934H8.34357V23.9263Z" fill="#172859"/>
<path d="M103.239 23.9263H103.224V23.9342H103.239V23.9263Z" fill="#172859"/>
<path d="M8.32447 23.9333H0V38.9844H8.32447V23.9333Z" fill="url(#paint0_radial_287_12116)"/>
<path d="M103.22 23.9333H94.8955V38.9844H103.22V23.9333Z" fill="url(#paint1_radial_287_12116)"/>
<path d="M8.34253 17.6248H36.8769V23.9262H0L8.34253 17.6248Z" fill="url(#paint2_radial_287_12116)"/>
<path d="M38.1662 0.426758V7.09382H8.32447V17.6249H0V0.426758H38.1662Z" fill="url(#paint3_radial_287_12116)"/>
<path d="M87.4338 21.5963C87.0005 20.1338 86.0181 18.9689 84.5374 18.1695C83.0567 17.3774 80.9007 16.8899 78.062 16.5816C75.2234 16.3343 71.4638 16.1515 66.7111 16.1515C63.1972 16.1515 60.4849 16.1515 58.5708 16.0296C56.599 15.9078 55.1833 15.664 54.2587 15.2948C53.2692 14.9901 52.7202 14.5027 52.471 13.9471C52.2219 13.3341 52.1641 12.542 52.1641 11.6243V11.1942C52.1641 10.1547 52.2869 9.29446 52.5324 8.62417C52.8394 7.94671 53.3992 7.45923 54.3201 7.09003C55.1869 6.72441 56.5412 6.47709 58.2639 6.36239C59.9938 6.29787 62.334 6.24051 65.2954 6.24051H66.7761C69.4234 6.24051 71.5216 6.29787 73.0673 6.42332C74.6672 6.54519 75.8987 6.85345 76.7041 7.21548C77.5636 7.64562 78.062 8.19762 78.304 8.93243C78.5532 9.66724 78.7374 10.5849 78.7374 11.7498V12.3627H87.0619V11.3233C87.0619 9.11882 86.8199 7.21907 86.3865 5.74945C85.9531 4.28699 85.0286 3.12205 83.4901 2.26178C82.0094 1.46962 79.8533 0.856682 77.0147 0.487484C74.1761 0.182807 70.2901 0 65.5446 0H63.6305C59.5026 0 56.1728 0.182807 53.5762 0.487484C50.9867 0.792162 49.0149 1.34775 47.5341 2.20443C46.1184 2.99659 45.1939 4.16154 44.6955 5.63116C44.2044 7.03626 43.9624 8.93602 43.9624 11.1978V11.6853C43.9624 13.9471 44.1466 15.7823 44.5113 17.1946C44.9447 18.5997 45.8692 19.7037 47.4077 20.4994C48.8884 21.2342 51.0517 21.7862 53.9481 22.0945C56.8446 22.3992 60.7883 22.5246 65.848 22.5246C69.0514 22.5246 71.6408 22.582 73.4899 22.7648C75.404 22.8867 76.8269 23.134 77.7478 23.4996C78.7301 23.9297 79.2863 24.4172 79.5355 25.0947C79.7775 25.765 79.9039 26.6217 79.9039 27.7221V28.1522C79.9039 29.1344 79.7811 29.9265 79.5355 30.604C79.2285 31.2169 78.6038 31.7617 77.6792 32.1309C76.7547 32.4966 75.339 32.8012 73.5513 32.9231C71.7636 33.045 69.297 33.1059 66.2778 33.1059H64.797C61.9006 33.1059 59.6146 33.0486 57.8305 32.9231C56.1006 32.8658 54.8113 32.5575 53.8795 32.1883C52.955 31.8227 52.341 31.2707 52.0304 30.5359C51.7235 29.8011 51.5971 28.8261 51.5971 27.5966V26.679H43.334V27.844C43.334 30.2885 43.5254 32.3138 43.9552 33.8407C44.3813 35.3677 45.3709 36.5326 46.8516 37.3929C48.3901 38.2532 50.6147 38.798 53.5111 39.0453C56.4076 39.35 60.3513 39.4755 65.346 39.4755H67.2023C71.6372 39.4755 75.2776 39.2927 77.9898 38.988C80.702 38.6833 82.8653 38.0632 84.3388 37.2137C85.8195 36.3534 86.809 35.1921 87.3616 33.6615C87.86 32.1345 88.102 30.2348 88.102 27.8475V27.4819C88.102 25.0302 87.9178 23.0731 87.4266 21.6034L87.4338 21.5963Z" fill="url(#paint4_radial_287_12116)"/>
<path d="M133 0.484131V17.6213H103.234L94.8916 23.9228H133V38.981H141.324V0.484131H133ZM94.8916 17.6249H103.22V0.484131H94.8916V17.6213V17.6249Z" fill="url(#paint5_radial_287_12116)"/>
<defs>
<radialGradient id="paint0_radial_287_12116" cx="0" cy="0" r="1" gradientUnits="userSpaceOnUse" gradientTransform="translate(14.464 52.8706) scale(80.4964 79.8936)">
<stop stop-color="#2EC8A4"/>
<stop offset="0.11" stop-color="#28A191"/>
<stop offset="0.23" stop-color="#237C80"/>
<stop offset="0.36" stop-color="#1E5D72"/>
<stop offset="0.5" stop-color="#1B4567"/>
<stop offset="0.64" stop-color="#18355F"/>
<stop offset="0.8" stop-color="#172B5A"/>
<stop offset="1" stop-color="#172859"/>
</radialGradient>
<radialGradient id="paint1_radial_287_12116" cx="0" cy="0" r="1" gradientUnits="userSpaceOnUse" gradientTransform="translate(-0.519889 -2.07178) scale(132.628 131.635)">
<stop stop-color="#2EC8A4"/>
<stop offset="0.09" stop-color="#29A895"/>
<stop offset="0.21" stop-color="#238182"/>
<stop offset="0.35" stop-color="#1F6073"/>
<stop offset="0.48" stop-color="#1B4767"/>
<stop offset="0.62" stop-color="#19365F"/>
<stop offset="0.77" stop-color="#172B5A"/>
<stop offset="0.94" stop-color="#172859"/>
<stop offset="0.95" stop-color="#172859"/>
<stop offset="1" stop-color="#172859"/>
</radialGradient>
<radialGradient id="paint2_radial_287_12116" cx="0" cy="0" r="1" gradientUnits="userSpaceOnUse" gradientTransform="translate(-0.520055 -2.07176) scale(132.628 131.635)">
<stop stop-color="#2EC8A4"/>
<stop offset="0.11" stop-color="#28A191"/>
<stop offset="0.23" stop-color="#237C80"/>
<stop offset="0.36" stop-color="#1E5D72"/>
<stop offset="0.5" stop-color="#1B4567"/>
<stop offset="0.64" stop-color="#18355F"/>
<stop offset="0.8" stop-color="#172B5A"/>
<stop offset="1" stop-color="#172859"/>
</radialGradient>
<radialGradient id="paint3_radial_287_12116" cx="0" cy="0" r="1" gradientUnits="userSpaceOnUse" gradientTransform="translate(-0.520055 -2.0716) scale(132.628 131.635)">
<stop stop-color="#2EC8A4"/>
<stop offset="0.11" stop-color="#28A191"/>
<stop offset="0.23" stop-color="#237C80"/>
<stop offset="0.36" stop-color="#1E5D72"/>
<stop offset="0.5" stop-color="#1B4567"/>
<stop offset="0.64" stop-color="#18355F"/>
<stop offset="0.8" stop-color="#172B5A"/>
<stop offset="1" stop-color="#172859"/>
</radialGradient>
<radialGradient id="paint4_radial_287_12116" cx="0" cy="0" r="1" gradientUnits="userSpaceOnUse" gradientTransform="translate(-0.520285 -2.07182) scale(132.628 131.635)">
<stop stop-color="#2EC8A4"/>
<stop offset="0.11" stop-color="#28A191"/>
<stop offset="0.23" stop-color="#237C80"/>
<stop offset="0.36" stop-color="#1E5D72"/>
<stop offset="0.5" stop-color="#1B4567"/>
<stop offset="0.64" stop-color="#18355F"/>
<stop offset="0.8" stop-color="#172B5A"/>
<stop offset="1" stop-color="#172859"/>
</radialGradient>
<radialGradient id="paint5_radial_287_12116" cx="0" cy="0" r="1" gradientUnits="userSpaceOnUse" gradientTransform="translate(-0.52023 -2.07158) scale(132.628 131.635)">
<stop stop-color="#2EC8A4"/>
<stop offset="0.11" stop-color="#28A191"/>
<stop offset="0.23" stop-color="#237C80"/>
<stop offset="0.36" stop-color="#1E5D72"/>
<stop offset="0.5" stop-color="#1B4567"/>
<stop offset="0.64" stop-color="#18355F"/>
<stop offset="0.8" stop-color="#172B5A"/>
<stop offset="1" stop-color="#172859"/>
</radialGradient>
</defs>
</svg>
