<svg width="24" height="23" viewBox="0 0 24 23" fill="none" xmlns="http://www.w3.org/2000/svg">
<path d="M1.13524 22.9051H22.8648C23.1657 22.9051 23.4514 22.7919 23.6686 22.5874C23.8819 22.383 24 22.1092 24 21.8171C24 21.2184 23.4895 20.7292 22.8648 20.7292H22.7581H10.3276H3.50095H1.24571H1.13524C0.830476 20.7292 0.548571 20.8424 0.331429 21.0468C0.118095 21.2513 0 21.5251 0 21.8171C0 22.4159 0.510476 22.9051 1.13524 22.9051ZM20.8648 2.92063H18.9371L19.1352 3.63619L20.1714 7.37825H23.7562L22.2362 3.86619C22.0305 3.29301 21.4819 2.92063 20.8648 2.92063ZM19.2762 0H5.12381C4.42286 0 3.85143 0.547618 3.85143 1.21936V2.54825H20.5486V1.22301C20.5486 0.547619 19.9771 0 19.2762 0Z" fill="#F7F9FC"/>
</svg>
